<svg width="25" height="25" viewBox="0 0 25 25" fill="none" xmlns="http://www.w3.org/2000/svg">
<path d="M4.40195 5.42016L3.86821 4.89326L3.86821 4.89326L4.40195 5.42016ZM11.1712 5.42016L11.7049 4.89326V4.89326L11.1712 5.42016ZM4.40195 12.2773L3.86821 12.8042L4.40195 12.2773ZM12.0173 19.9916L11.4836 20.5185C11.6245 20.6612 11.8167 20.7416 12.0173 20.7416C12.2179 20.7416 12.4102 20.6612 12.5511 20.5185L12.0173 19.9916ZM15.3716 16.5937L14.8426 16.0621L14.8379 16.0668L15.3716 16.5937ZM15.4022 16.563L14.8685 16.0361L14.8684 16.0362L15.4022 16.563ZM19.633 12.2773L20.1667 12.8042L19.633 12.2773ZM19.633 5.42018L19.0992 5.94708V5.94708L19.633 5.42018ZM12.8637 5.42018L13.3975 5.94708L12.8637 5.42018ZM12.0175 6.27744L11.4837 6.80434C11.6246 6.94709 11.8169 7.02744 12.0175 7.02744C12.2181 7.02744 12.4103 6.94709 12.5512 6.80434L12.0175 6.27744ZM4.93569 5.94706C6.51131 4.35098 9.06183 4.35098 10.6374 5.94706L11.7049 4.89326C9.542 2.70225 6.03114 2.70225 3.86821 4.89326L4.93569 5.94706ZM4.93569 11.7504C3.35477 10.1489 3.35477 7.54851 4.93569 5.94706L3.86821 4.89326C1.7106 7.0789 1.7106 10.6186 3.86821 12.8042L4.93569 11.7504ZM12.5511 19.4647L4.93569 11.7504L3.86821 12.8042L11.4836 20.5185L12.5511 19.4647ZM14.8379 16.0668L11.4836 19.4647L12.5511 20.5185L15.9054 17.1206L14.8379 16.0668ZM14.8684 16.0362C14.8598 16.0449 14.8512 16.0535 14.8426 16.0621L15.9007 17.1253C15.9125 17.1136 15.9243 17.1018 15.936 17.0899L14.8684 16.0362ZM19.0992 11.7504L14.8685 16.0361L15.9359 17.0899L20.1667 12.8042L19.0992 11.7504ZM19.0992 5.94708C20.6801 7.54854 20.6801 10.149 19.0992 11.7504L20.1667 12.8042C22.3243 10.6186 22.3243 7.07892 20.1667 4.89329L19.0992 5.94708ZM13.3975 5.94708C14.9731 4.351 17.5236 4.351 19.0992 5.94708L20.1667 4.89329C18.0038 2.70227 14.4929 2.70227 12.33 4.89329L13.3975 5.94708ZM12.5512 6.80434L13.3975 5.94708L12.33 4.89329L11.4837 5.75054L12.5512 6.80434ZM10.6374 5.94706L11.4837 6.80434L12.5512 5.75054L11.7049 4.89326L10.6374 5.94706Z" fill="#D32020"/>
</svg>
