<svg width="18" height="18" viewBox="0 0 18 18" fill="none" xmlns="http://www.w3.org/2000/svg">
<path d="M16.737 15.7773C15.6981 14.7213 15.1706 14.3732 14.1297 13.3192C14.0471 13.2357 13.969 13.1489 13.8909 13.0653C16.8426 9.3466 15.4726 4.5941 12.6796 2.49522C9.71439 0.267766 5.65081 0.547747 3.07791 3.20985C0.503081 5.87326 0.304322 10.0123 2.57585 12.9328C4.82157 15.8195 9.34724 16.8662 12.9101 13.9639C12.9649 14.0559 13.0997 14.1852 13.1817 14.2688C14.2187 15.3261 14.7449 15.6768 15.7884 16.7275C16.1033 17.0447 16.4453 17.0838 16.7364 16.8509C17.0849 16.5709 17.0907 16.1369 16.737 15.7773ZM8.25919 14.3549C4.98548 14.3301 2.34612 11.6484 2.34676 8.34741C2.34741 5.03985 4.99516 2.36077 8.265 2.35947C11.5303 2.35816 14.1774 5.02092 14.2071 8.33697C14.2368 11.6073 11.4968 14.3797 8.25919 14.3549Z" fill="#2C2A2A" stroke="#2C2A2A" stroke-width="0.3"/>
</svg>
